<svg width="20" height="20" viewBox="0 0 20 20" fill="none" xmlns="http://www.w3.org/2000/svg">
<path d="M15.4166 10.5417V13.625C15.4166 16.225 12.9916 18.3333 9.99998 18.3333C7.00831 18.3333 4.58331 16.225 4.58331 13.625V10.5417C4.58331 13.1417 7.00831 15 9.99998 15C12.9916 15 15.4166 13.1417 15.4166 10.5417Z" stroke="#292D32" stroke-width="1.5" stroke-linecap="round" stroke-linejoin="round"/>
<path d="M15.4166 6.37501C15.4166 7.13334 15.2083 7.83334 14.8416 8.43334C13.95 9.9 12.1166 10.8333 9.99998 10.8333C7.88331 10.8333 6.04998 9.9 5.15832 8.43334C4.79165 7.83334 4.58331 7.13334 4.58331 6.37501C4.58331 5.07501 5.19164 3.90001 6.16664 3.05001C7.14997 2.19167 8.49998 1.66667 9.99998 1.66667C11.5 1.66667 12.85 2.19167 13.8333 3.04167C14.8083 3.90001 15.4166 5.07501 15.4166 6.37501Z" stroke="#292D32" stroke-width="1.5" stroke-linecap="round" stroke-linejoin="round"/>
<path d="M15.4166 6.37501V10.5417C15.4166 13.1417 12.9916 15 9.99998 15C7.00831 15 4.58331 13.1417 4.58331 10.5417V6.37501C4.58331 3.77501 7.00831 1.66667 9.99998 1.66667C11.5 1.66667 12.85 2.19167 13.8333 3.04167C14.8083 3.90001 15.4166 5.07501 15.4166 6.37501Z" stroke="#292D32" stroke-width="1.5" stroke-linecap="round" stroke-linejoin="round"/>
</svg>
