<svg width="20" height="20" viewBox="0 0 20 20" fill="none" xmlns="http://www.w3.org/2000/svg">
<path d="M14.9834 8.99167V12.325C14.9834 12.5417 14.975 12.75 14.95 12.95C14.7584 15.2 13.4334 16.3167 10.9917 16.3167H10.6584C10.45 16.3167 10.25 16.4167 10.125 16.5833L9.12503 17.9167C8.68336 18.5083 7.96669 18.5083 7.52502 17.9167L6.52501 16.5833C6.41668 16.4417 6.17502 16.3167 5.99169 16.3167H5.65836C3.00003 16.3167 1.66669 15.6583 1.66669 12.325V8.99167C1.66669 6.55001 2.79169 5.22501 5.03336 5.03334C5.23336 5.00834 5.44169 5 5.65836 5H10.9917C13.65 5 14.9834 6.33334 14.9834 8.99167Z" stroke="#292D32" stroke-width="1.5" stroke-miterlimit="10" stroke-linecap="round" stroke-linejoin="round"/>
<path d="M18.3167 5.65834V8.99167C18.3167 11.4417 17.1917 12.7583 14.95 12.95C14.975 12.75 14.9833 12.5417 14.9833 12.325V8.99167C14.9833 6.33334 13.65 5 10.9917 5H5.65833C5.44166 5 5.23333 5.00834 5.03333 5.03334C5.22499 2.79167 6.54999 1.66667 8.99166 1.66667H14.325C16.9833 1.66667 18.3167 3.00001 18.3167 5.65834Z" stroke="#292D32" stroke-width="1.5" stroke-miterlimit="10" stroke-linecap="round" stroke-linejoin="round"/>
<path d="M11.2462 11.0417H11.2537" stroke="#292D32" stroke-width="2" stroke-linecap="round" stroke-linejoin="round"/>
<path d="M8.3296 11.0417H8.3371" stroke="#292D32" stroke-width="2" stroke-linecap="round" stroke-linejoin="round"/>
<path d="M5.41292 11.0417H5.42042" stroke="#292D32" stroke-width="2" stroke-linecap="round" stroke-linejoin="round"/>
</svg>
