<svg width="28" height="28" viewBox="0 0 28 28" fill="none" xmlns="http://www.w3.org/2000/svg">
<path d="M5.83333 17.2083C4.06 17.2083 2.625 15.7733 2.625 14C2.625 12.2267 4.06 10.7917 5.83333 10.7917C7.60667 10.7917 9.04167 12.2267 9.04167 14C9.04167 15.7733 7.60667 17.2083 5.83333 17.2083ZM5.83333 12.5417C5.02833 12.5417 4.375 13.195 4.375 14C4.375 14.805 5.02833 15.4583 5.83333 15.4583C6.63833 15.4583 7.29167 14.805 7.29167 14C7.29167 13.195 6.63833 12.5417 5.83333 12.5417Z" fill="white"/>
<path d="M22.1666 17.2083C20.3933 17.2083 18.9583 15.7733 18.9583 14C18.9583 12.2267 20.3933 10.7917 22.1666 10.7917C23.94 10.7917 25.375 12.2267 25.375 14C25.375 15.7733 23.94 17.2083 22.1666 17.2083ZM22.1666 12.5417C21.3616 12.5417 20.7083 13.195 20.7083 14C20.7083 14.805 21.3616 15.4583 22.1666 15.4583C22.9716 15.4583 23.625 14.805 23.625 14C23.625 13.195 22.9716 12.5417 22.1666 12.5417Z" fill="white"/>
<path d="M14 17.2083C12.2267 17.2083 10.7917 15.7733 10.7917 14C10.7917 12.2267 12.2267 10.7917 14 10.7917C15.7734 10.7917 17.2084 12.2267 17.2084 14C17.2084 15.7733 15.7734 17.2083 14 17.2083ZM14 12.5417C13.195 12.5417 12.5417 13.195 12.5417 14C12.5417 14.805 13.195 15.4583 14 15.4583C14.805 15.4583 15.4584 14.805 15.4584 14C15.4584 13.195 14.805 12.5417 14 12.5417Z" fill="white"/>
</svg>
