<svg width="430" height="510" viewBox="0 0 430 510" fill="none" xmlns="http://www.w3.org/2000/svg">
<path d="M709.918 520.677C703.535 513.264 298.284 75.036 195.029 79.9619C91.7753 84.8878 40.6089 145.967 -59.2942 166.349C-159.197 186.732 -232.182 203.261 -412.006 172.733C-509.531 156.177 -509.51 120.947 -567.365 115.726C-625.219 110.506 -774.094 145.25 -966.929 154.45C-1159.76 163.649 -1583.15 116.428 -1627.49 40.0501" stroke="url(#paint0_linear_94_129)" stroke-opacity="0.5"/>
<path d="M698.286 197.018C689.638 192.913 265.09 366.455 131.372 372.834C-2.34657 379.213 -65.7139 416.566 -194.321 431.845C-322.929 447.123 -416.803 459.24 -651.614 447.547C-778.96 441.205 -780.672 420.661 -855.99 419.582C-931.308 418.503 -1038.83 469.804 -1169.72 487.521C-1250.11 498.401 -1291.42 492.227 -1398.91 498.454C-1506.39 504.681 -564.163 -86.7609 -732.209 -92.9222" stroke="url(#paint1_linear_94_129)" stroke-opacity="0.5"/>
<path d="M709.633 512.781C706.309 509.065 595.555 404.604 480.082 297.572C364.608 190.539 239.037 85.7668 185.532 88.5423C81.6597 93.7207 29.4516 153.605 -73.7419 173.206C-174.314 192.936 -245.561 208.561 -422.836 178.752C-519.82 162.573 -522.421 129.453 -582.057 124.793C-640.462 119.965 -786.713 153.711 -977.466 162.838C-1168.22 171.965 -1558.29 111.47 -1605.65 36.8048" stroke="url(#paint2_linear_94_129)" stroke-opacity="0.5"/>
<path d="M709.347 504.888C705.889 501.162 587.291 403.652 471.361 299.455C355.431 195.258 231.415 94.0383 176.033 97.1264C71.542 102.557 18.2923 161.248 -88.1917 180.066C-189.433 199.145 -258.941 213.865 -433.668 184.774C-530.11 168.973 -535.334 137.964 -596.752 133.862C-655.706 129.428 -799.334 162.176 -988.005 171.23C-1176.68 180.285 -1533.44 106.515 -1583.82 33.5632" stroke="url(#paint3_linear_94_129)" stroke-opacity="0.5"/>
<path d="M709.072 496.991C705.482 493.256 579.038 402.696 462.652 301.334C346.267 199.972 223.806 102.305 166.546 105.706C61.4365 111.389 7.14516 168.886 -102.629 186.921C-204.54 205.348 -272.31 219.165 -444.488 190.792C-540.388 175.368 -548.235 146.469 -611.435 142.928C-670.938 138.886 -811.942 170.636 -998.532 179.618C-1185.12 188.6 -1508.58 101.557 -1561.98 30.3172" stroke="url(#paint4_linear_94_129)" stroke-opacity="0.5"/>
<path d="M708.786 489.098C705.062 485.353 570.774 401.743 453.932 303.217C337.09 204.69 216.184 110.577 157.047 114.29C51.3195 120.226 -4.01348 176.528 -117.078 193.781C-219.659 211.557 -285.69 224.469 -455.319 196.814C-550.677 181.768 -561.148 154.98 -626.128 151.997C-686.181 148.348 -824.562 179.1 -1009.07 188.009C-1193.58 196.919 -1483.73 96.6025 -1540.14 27.0754" stroke="url(#paint5_linear_94_129)" stroke-opacity="0.5"/>
<path d="M708.5 481.206C704.644 477.451 562.511 400.791 445.213 305.099C327.914 209.408 208.564 118.848 147.549 122.874C41.2026 129.062 -15.1721 184.17 -131.527 200.641C-234.777 217.764 -299.07 229.773 -466.15 202.836C-560.967 188.167 -574.06 163.49 -640.822 161.067C-701.425 157.81 -837.182 187.564 -1019.61 196.401C-1202.03 205.238 -1458.88 91.6479 -1518.31 23.8334" stroke="url(#paint6_linear_94_129)" stroke-opacity="0.5"/>
<path d="M708.215 473.31C704.225 469.545 554.247 399.835 436.493 306.979C318.738 214.123 200.943 127.116 138.05 131.454C31.0858 137.895 -26.3304 191.809 -145.976 207.497C-249.895 223.969 -312.45 235.073 -476.981 208.855C-571.256 194.563 -586.972 171.996 -655.516 170.133C-716.668 167.269 -849.802 196.025 -1030.15 204.789C-1210.49 213.554 -1434.03 86.69 -1496.47 20.5881" stroke="url(#paint7_linear_94_129)" stroke-opacity="0.5"/>
<path d="M707.928 465.417C703.805 461.642 545.982 398.882 427.772 308.862C309.562 218.841 193.321 135.387 128.551 140.038C20.968 146.732 -37.4899 199.451 -160.426 214.357C-265.014 230.177 -325.831 240.377 -487.813 214.877C-581.546 200.963 -599.885 180.506 -670.211 179.202C-731.912 176.731 -862.423 204.489 -1040.69 213.181C-1218.95 221.873 -1409.18 81.7356 -1474.64 17.3463" stroke="url(#paint8_linear_94_129)" stroke-opacity="0.5"/>
<path d="M707.654 457.523C703.397 453.739 537.73 397.93 419.063 310.744C300.397 223.558 185.711 143.658 119.064 148.621C10.8625 155.567 -48.637 207.093 -174.864 221.217C-280.121 236.385 -339.199 245.68 -498.632 220.898C-591.824 207.362 -612.786 189.016 -684.893 188.271C-747.145 186.193 -875.032 212.953 -1051.21 221.572C-1227.39 230.192 -1384.31 76.7806 -1452.8 14.1039" stroke="url(#paint9_linear_94_129)" stroke-opacity="0.5"/>
<path d="M707.368 449.627C702.979 445.833 529.466 396.974 410.344 312.623C291.221 228.273 178.091 151.926 109.565 157.202C0.745929 164.4 -59.7952 214.731 -189.312 228.073C-295.239 242.589 -352.579 250.98 -509.463 226.917C-602.113 213.758 -625.698 197.522 -699.587 197.337C-762.388 195.651 -887.651 221.414 -1061.75 229.96C-1235.85 238.507 -1359.46 71.8227 -1430.96 10.8585" stroke="url(#paint10_linear_94_129)" stroke-opacity="0.5"/>
<path d="M707.082 441.735C702.559 437.932 521.202 396.022 401.623 314.507C282.045 232.992 170.469 160.198 100.067 165.786C-9.37132 173.237 -70.9542 222.374 -203.762 234.933C-310.358 248.798 -365.959 256.285 -520.294 232.94C-612.403 220.158 -638.611 206.033 -714.281 206.407C-777.631 205.114 -900.272 229.878 -1072.29 238.353C-1244.31 246.827 -1334.61 66.8688 -1409.13 7.61723" stroke="url(#paint11_linear_94_129)" stroke-opacity="0.5"/>
<path d="M706.796 433.842C702.141 430.028 512.939 395.069 392.904 316.389C272.869 237.709 162.849 168.468 90.5685 174.37C-19.4878 182.073 -82.1123 230.016 -218.21 241.793C-325.476 255.005 -379.339 261.588 -531.125 238.961C-622.692 226.557 -651.523 214.543 -728.974 215.476C-792.874 214.576 -912.891 238.342 -1082.83 246.744C-1252.76 255.146 -1309.76 61.9137 -1387.29 4.37465" stroke="url(#paint12_linear_94_129)" stroke-opacity="0.5"/>
<path d="M706.51 425.946C701.722 422.123 504.675 394.113 384.184 318.269C263.693 242.424 155.228 176.736 81.0701 182.95C-29.6045 190.906 -93.2706 237.655 -232.659 248.649C-340.594 261.21 -392.719 266.889 -541.956 244.98C-632.981 232.954 -664.435 223.049 -743.668 224.543C-808.117 224.035 -925.511 246.803 -1093.37 255.132C-1261.22 263.462 -1284.91 56.956 -1365.46 1.12957" stroke="url(#paint13_linear_94_129)" stroke-opacity="0.5"/>
<path d="M706.236 418.052C701.314 414.22 496.422 393.16 375.475 320.151C254.528 247.142 147.618 185.007 71.5828 191.533C-39.7102 199.742 -104.418 245.296 -247.097 255.508C-355.701 267.417 -406.087 272.192 -552.776 251.001C-643.259 239.352 -677.336 231.559 -758.351 233.611C-823.35 233.496 -938.12 255.266 -1103.89 263.523C-1269.66 271.78 -1260.05 52.0009 -1343.61 -2.11295" stroke="url(#paint14_linear_94_129)" stroke-opacity="0.5"/>
<path d="M705.95 410.159C700.895 406.317 488.159 392.207 366.756 322.034C245.352 251.86 139.997 193.278 62.0842 200.117C-49.8272 208.578 -115.577 252.938 -261.546 262.368C-370.82 273.625 -419.467 277.495 -563.607 257.023C-653.549 245.752 -690.249 240.069 -773.045 242.681C-838.593 242.958 -950.74 263.73 -1114.43 271.915C-1278.12 280.099 -1235.2 47.0463 -1321.78 -5.35495" stroke="url(#paint15_linear_94_129)" stroke-opacity="0.5"/>
<path d="M705.664 402.263C700.477 398.411 479.895 391.252 358.036 323.913C236.176 256.575 132.376 201.546 52.5858 208.698C-59.944 217.411 -126.735 260.577 -275.995 269.225C-385.938 279.83 -432.847 282.796 -574.438 263.042C-663.838 252.148 -703.161 248.576 -787.738 251.747C-853.837 252.417 -963.36 272.191 -1124.97 280.303C-1286.58 288.415 -1210.35 42.0886 -1299.95 -8.60006" stroke="url(#paint16_linear_94_129)" stroke-opacity="0.5"/>
<path d="M705.379 394.371C700.058 390.509 471.632 390.299 349.316 325.796C227.001 261.293 124.756 209.818 43.0877 217.282C-70.0604 226.247 -137.893 268.219 -290.443 276.084C-401.056 286.038 -446.227 288.1 -585.268 269.064C-674.127 258.548 -716.072 257.086 -802.432 260.816C-869.08 261.879 -975.979 280.656 -1135.51 288.695C-1295.03 296.735 -1185.49 37.1341 -1278.11 -11.842" stroke="url(#paint17_linear_94_129)" stroke-opacity="0.5"/>
<path d="M705.092 386.478C699.638 382.606 463.367 389.347 340.595 327.679C217.824 266.011 117.134 218.089 33.5884 225.865C-80.1781 235.084 -149.052 275.861 -304.893 282.944C-416.175 292.246 -459.607 293.403 -596.1 275.086C-684.417 264.947 -728.986 265.596 -817.126 269.886C-884.324 271.342 -988.6 289.12 -1146.05 297.087C-1303.49 305.054 -1160.64 32.1796 -1256.28 -15.0839" stroke="url(#paint18_linear_94_129)" stroke-opacity="0.5"/>
<path d="M704.817 378.581C699.231 374.7 455.114 388.39 331.887 329.558C208.659 270.725 109.525 226.356 24.1012 234.445C-90.2837 243.916 -160.2 283.5 -319.331 289.8C-431.282 298.45 -472.976 298.703 -606.92 281.104C-694.695 271.343 -741.886 274.102 -831.809 278.952C-899.556 280.8 -1001.21 297.58 -1156.57 305.475C-1311.94 313.369 -1135.78 27.2213 -1234.43 -18.3296" stroke="url(#paint19_linear_94_129)" stroke-opacity="0.5"/>
<path d="M704.531 370.689C698.811 366.797 446.85 387.438 323.166 331.441C199.483 275.443 101.903 234.628 14.6023 243.029C-100.401 252.753 -171.359 291.142 -333.78 296.66C-446.401 304.658 -486.357 304.007 -617.751 287.126C-704.985 277.743 -754.799 282.612 -846.503 288.021C-914.8 290.262 -1013.83 306.044 -1167.11 313.866C-1320.39 321.688 -1110.93 22.2668 -1212.6 -21.5715" stroke="url(#paint20_linear_94_129)" stroke-opacity="0.5"/>
<path d="M704.246 362.792C698.393 358.891 438.587 386.482 314.447 333.32C190.307 280.158 94.2826 242.895 5.10413 251.61C-110.518 261.586 -182.517 298.781 -348.229 303.516C-461.518 310.863 -499.736 309.308 -628.582 293.145C-715.274 284.139 -767.711 291.119 -861.196 297.087C-930.043 299.721 -1026.45 314.505 -1177.65 322.255C-1328.85 330.004 -1086.08 17.3089 -1190.77 -24.8168" stroke="url(#paint21_linear_94_129)" stroke-opacity="0.5"/>
<path d="M703.959 354.9C697.973 350.989 430.322 385.53 305.726 335.203C181.13 284.876 86.6609 251.167 -4.39517 260.194C-120.635 270.422 -193.676 306.423 -362.679 310.376C-476.638 317.071 -513.117 314.611 -639.414 299.167C-725.565 290.538 -780.624 299.629 -875.891 306.157C-945.287 309.183 -1039.07 322.969 -1188.19 330.646C-1337.31 338.323 -1061.23 12.3544 -1168.93 -28.0587" stroke="url(#paint22_linear_94_129)" stroke-opacity="0.5"/>
<path d="M703.673 347.003C697.554 343.083 422.059 384.574 297.007 337.082C171.954 289.591 79.0402 259.435 -13.8934 268.774C-130.752 279.255 -204.834 314.062 -377.127 317.233C-491.756 323.275 -526.496 319.912 -650.244 305.186C-735.853 296.934 -793.536 308.136 -890.585 315.223C-960.53 318.642 -1051.69 331.43 -1198.73 339.035C-1345.76 346.639 -1036.38 7.39653 -1147.1 -31.304" stroke="url(#paint23_linear_94_129)" stroke-opacity="0.5"/>
<path d="M703.399 339.114C697.147 335.184 413.806 383.624 288.298 338.968C162.79 294.312 71.4308 267.709 -23.3804 277.361C-140.857 288.094 -215.981 321.707 -391.565 324.095C-506.862 329.486 -539.865 325.219 -661.064 311.211C-746.131 303.337 -806.437 316.649 -905.267 324.295C-975.762 328.107 -1064.3 339.897 -1209.25 347.429C-1354.21 354.961 -1011.51 2.44507 -1125.25 -34.5429" stroke="url(#paint24_linear_94_129)" stroke-opacity="0.5"/>
<path d="M703.113 331.217C696.728 327.277 405.542 382.668 279.578 340.847C153.614 299.027 63.8096 275.977 -32.8792 285.941C-150.974 296.927 -227.14 329.345 -406.014 330.952C-521.981 335.691 -553.245 330.519 -671.895 317.229C-756.421 309.733 -819.35 325.155 -919.961 333.361C-991.006 337.566 -1076.92 348.358 -1219.79 355.817C-1362.67 363.277 -986.664 -2.51295 -1103.42 -37.7883" stroke="url(#paint25_linear_94_129)" stroke-opacity="0.5"/>
<path d="M702.828 323.321C696.31 319.371 397.28 381.712 270.859 342.727C144.439 303.741 56.1898 284.244 -42.3766 294.521C-161.09 305.76 -238.297 336.984 -420.462 337.808C-537.098 341.895 -566.624 335.819 -682.725 323.248C-766.709 316.129 -832.261 333.662 -934.654 342.427C-1006.25 347.024 -1089.54 356.819 -1230.33 364.205C-1371.12 371.592 -961.812 -7.47087 -1081.58 -41.0336" stroke="url(#paint26_linear_94_129)" stroke-opacity="0.5"/>
<path d="M702.541 315.432C695.89 311.472 389.015 380.763 262.138 344.613C135.261 308.463 48.5676 292.519 -51.8764 303.109C-171.208 314.6 -249.457 344.63 -434.912 344.671C-552.218 348.107 -580.005 341.126 -693.557 329.273C-777 322.532 -845.174 342.175 -949.349 351.5C-1021.49 356.49 -1102.16 365.286 -1240.87 372.601C-1379.58 379.915 -936.962 -12.4219 -1059.75 -44.2721" stroke="url(#paint27_linear_94_129)" stroke-opacity="0.5"/>
<path d="M702.255 307.536C695.471 303.567 380.751 379.808 253.418 346.493C126.085 313.178 40.9467 300.787 -61.3748 311.689C-181.325 323.433 -260.616 352.269 -449.361 351.528C-567.336 354.311 -593.385 346.427 -704.388 335.292C-787.289 328.928 -858.087 350.682 -964.043 360.566C-1036.74 365.949 -1114.78 373.747 -1251.41 380.989C-1388.04 388.231 -912.111 -17.3797 -1037.92 -47.5172" stroke="url(#paint28_linear_94_129)" stroke-opacity="0.5"/>
<path d="M701.981 299.639C695.064 295.66 372.499 378.851 244.71 348.372C116.922 317.892 33.3379 309.054 -70.8612 320.269C-191.43 332.265 -271.762 359.907 -463.798 358.384C-582.442 360.516 -606.753 351.727 -715.207 341.31C-797.566 335.324 -870.987 359.188 -978.724 369.632C-1051.97 375.407 -1127.39 382.207 -1261.93 389.377C-1396.48 396.546 -887.247 -22.3382 -1016.07 -50.7631" stroke="url(#paint29_linear_94_129)" stroke-opacity="0.5"/>
<path d="M701.694 291.75C694.643 287.761 364.234 377.902 235.989 350.258C107.744 322.613 25.7156 317.329 -80.361 328.856C-201.548 341.105 -282.922 367.552 -478.248 365.247C-597.562 366.727 -620.134 357.034 -726.039 347.336C-807.857 341.727 -883.9 367.701 -993.419 378.705C-1067.21 384.872 -1140.01 390.675 -1272.47 397.772C-1404.94 404.869 -862.398 -27.2892 -994.238 -54.0016" stroke="url(#paint30_linear_94_129)" stroke-opacity="0.5"/>
<path d="M701.409 283.854C694.225 279.855 355.97 376.946 227.269 352.137C98.5682 327.328 18.0948 325.597 -89.8595 337.437C-211.665 349.938 -294.08 375.191 -492.697 372.103C-612.68 372.932 -633.514 362.334 -736.871 353.354C-818.147 348.123 -896.813 376.208 -1008.11 387.771C-1082.46 394.331 -1152.63 399.136 -1283.01 406.16C-1413.39 413.185 -837.547 -32.2471 -972.404 -57.2468" stroke="url(#paint31_linear_94_129)" stroke-opacity="0.5"/>
<path d="M701.123 275.957C693.806 271.949 347.707 375.99 218.549 354.017C89.3923 332.043 10.474 333.865 -99.3578 346.017C-221.782 358.771 -305.239 382.83 -507.146 378.96C-627.798 379.136 -646.894 367.634 -747.701 359.373C-828.436 354.519 -909.725 384.715 -1022.81 396.837C-1097.7 403.79 -1165.25 407.596 -1293.55 414.548C-1421.85 421.5 -812.695 -37.2051 -950.57 -60.4923" stroke="url(#paint32_linear_94_129)" stroke-opacity="0.5"/>
<path d="M700.837 268.065C693.387 264.047 339.443 375.038 209.83 355.9C80.2163 336.761 2.8531 342.136 -108.856 354.601C-231.898 367.607 -316.397 390.472 -521.595 385.82C-642.917 385.344 -660.274 372.938 -758.532 365.395C-838.725 360.919 -922.637 393.225 -1037.5 405.906C-1112.94 413.252 -1177.87 416.061 -1304.09 422.94C-1430.31 429.82 -787.844 -42.1594 -928.736 -63.734" stroke="url(#paint33_linear_94_129)" stroke-opacity="0.5"/>
<path d="M700.562 260.171C692.979 256.144 331.19 374.085 201.121 357.782C71.0515 341.479 -4.75662 350.407 -118.344 363.185C-242.004 376.443 -327.545 398.114 -536.032 392.679C-658.024 391.552 -673.643 378.242 -769.352 371.417C-849.003 367.318 -935.538 401.734 -1052.18 414.975C-1128.17 422.714 -1190.48 424.524 -1314.61 431.331C-1438.75 438.138 -762.982 -47.1144 -906.891 -66.9764" stroke="url(#paint34_linear_94_129)" stroke-opacity="0.5"/>
<path d="M700.277 252.275C692.561 248.238 322.927 373.129 192.401 359.661C61.8756 346.193 -12.3774 358.675 -127.842 371.765C-252.121 385.276 -338.703 405.752 -550.481 399.535C-673.142 397.756 -687.022 383.542 -780.183 377.435C-859.292 373.714 -948.45 410.241 -1066.88 424.041C-1143.42 432.173 -1203.1 432.985 -1325.15 439.72C-1447.21 446.454 -738.131 -52.0723 -885.057 -70.2217" stroke="url(#paint35_linear_94_129)" stroke-opacity="0.5"/>
<path d="M699.991 244.382C692.142 240.335 314.663 372.177 183.681 361.544C52.6996 350.912 -19.9984 366.946 -137.34 380.349C-262.238 394.112 -349.862 413.395 -564.93 406.395C-688.26 403.964 -700.402 388.846 -791.014 383.457C-869.582 380.113 -961.362 418.751 -1081.57 433.111C-1158.66 441.635 -1215.71 441.449 -1335.69 448.111C-1455.66 454.773 -713.28 -57.0268 -863.223 -73.4636" stroke="url(#paint36_linear_94_129)" stroke-opacity="0.5"/>
<path d="M699.704 236.49C691.722 232.433 306.398 371.224 174.961 363.427C43.5229 355.63 -27.62 375.218 -146.84 388.933C-272.355 402.949 -361.021 421.037 -579.38 413.255C-703.379 410.172 -713.783 394.15 -801.846 389.48C-879.872 386.513 -974.275 427.262 -1096.27 442.181C-1173.91 451.097 -1228.34 449.914 -1346.23 456.503C-1464.12 463.093 -688.429 -61.9811 -841.389 -76.7053" stroke="url(#paint37_linear_94_129)" stroke-opacity="0.5"/>
<path d="M699.419 228.593C691.303 224.527 298.135 370.268 166.241 365.306C34.3472 360.344 -35.2405 383.485 -156.338 397.513C-282.472 411.781 -372.179 428.675 -593.828 420.111C-718.497 416.377 -727.163 399.45 -812.676 395.498C-890.161 392.909 -987.187 435.768 -1110.96 451.246C-1189.15 460.556 -1240.96 458.374 -1356.77 464.891C-1472.58 471.408 -663.578 -66.9393 -819.555 -79.951" stroke="url(#paint38_linear_94_129)" stroke-opacity="0.5"/>
<path d="M699.144 220.7C690.895 216.624 289.882 369.315 157.532 367.189C25.1819 365.062 -42.8507 391.756 -165.826 406.097C-292.578 420.617 -383.327 436.317 -608.267 426.971C-733.605 422.584 -740.532 404.753 -823.497 401.519C-900.44 399.308 -1000.09 444.277 -1125.64 460.315C-1204.38 470.017 -1253.56 466.838 -1367.29 473.282C-1481.02 479.727 -638.716 -71.8942 -797.711 -83.1933" stroke="url(#paint39_linear_94_129)" stroke-opacity="0.5"/>
<path d="M698.858 212.808C690.476 208.722 281.618 368.363 148.812 369.072C16.006 369.78 -50.4715 400.027 -175.324 414.681C-302.695 429.454 -394.485 443.959 -622.715 433.831C-748.723 428.792 -753.912 410.057 -834.328 407.542C-910.729 405.708 -1013 452.788 -1140.34 469.385C-1219.62 479.48 -1266.18 475.302 -1377.83 481.674C-1489.48 488.046 -613.865 -76.8485 -775.877 -86.435" stroke="url(#paint40_linear_94_129)" stroke-opacity="0.5"/>
<path d="M698.572 204.911C690.058 200.816 273.355 367.407 140.092 370.951C6.83015 374.495 -58.0924 408.295 -184.822 423.261C-312.812 438.287 -405.644 451.598 -637.164 440.687C-763.841 434.997 -767.292 415.357 -845.159 413.56C-921.018 412.104 -1025.91 461.294 -1155.03 478.451C-1234.87 488.939 -1278.8 483.763 -1388.37 490.063C-1497.94 496.362 -589.014 -81.8065 -754.042 -89.6804" stroke="url(#paint41_linear_94_129)" stroke-opacity="0.5"/>
<defs>
<linearGradient id="paint0_linear_94_129" x1="-438.184" y1="-16.6874" x2="-410" y2="574.104" gradientUnits="userSpaceOnUse">
<stop stop-color="white"/>
<stop offset="1" stop-color="white" stop-opacity="0"/>
</linearGradient>
<linearGradient id="paint1_linear_94_129" x1="-322.828" y1="-112.452" x2="-296.056" y2="448.742" gradientUnits="userSpaceOnUse">
<stop stop-color="white"/>
<stop offset="1" stop-color="white" stop-opacity="0"/>
</linearGradient>
<linearGradient id="paint2_linear_94_129" x1="-427.608" y1="-19.3956" x2="-399.695" y2="565.703" gradientUnits="userSpaceOnUse">
<stop stop-color="white"/>
<stop offset="1" stop-color="white" stop-opacity="0"/>
</linearGradient>
<linearGradient id="paint3_linear_94_129" x1="-417.033" y1="-22.1001" x2="-389.392" y2="557.305" gradientUnits="userSpaceOnUse">
<stop stop-color="white"/>
<stop offset="1" stop-color="white" stop-opacity="0"/>
</linearGradient>
<linearGradient id="paint4_linear_94_129" x1="-406.446" y1="-24.809" x2="-379.076" y2="548.903" gradientUnits="userSpaceOnUse">
<stop stop-color="white"/>
<stop offset="1" stop-color="white" stop-opacity="0"/>
</linearGradient>
<linearGradient id="paint5_linear_94_129" x1="-395.871" y1="-27.5137" x2="-368.773" y2="540.505" gradientUnits="userSpaceOnUse">
<stop stop-color="white"/>
<stop offset="1" stop-color="white" stop-opacity="0"/>
</linearGradient>
<linearGradient id="paint6_linear_94_129" x1="-385.295" y1="-30.2186" x2="-358.469" y2="532.107" gradientUnits="userSpaceOnUse">
<stop stop-color="white"/>
<stop offset="1" stop-color="white" stop-opacity="0"/>
</linearGradient>
<linearGradient id="paint7_linear_94_129" x1="-374.72" y1="-32.9268" x2="-348.165" y2="523.706" gradientUnits="userSpaceOnUse">
<stop stop-color="white"/>
<stop offset="1" stop-color="white" stop-opacity="0"/>
</linearGradient>
<linearGradient id="paint8_linear_94_129" x1="-364.145" y1="-35.6315" x2="-337.861" y2="515.308" gradientUnits="userSpaceOnUse">
<stop stop-color="white"/>
<stop offset="1" stop-color="white" stop-opacity="0"/>
</linearGradient>
<linearGradient id="paint9_linear_94_129" x1="-353.558" y1="-38.3368" x2="-327.546" y2="506.909" gradientUnits="userSpaceOnUse">
<stop stop-color="white"/>
<stop offset="1" stop-color="white" stop-opacity="0"/>
</linearGradient>
<linearGradient id="paint10_linear_94_129" x1="-342.982" y1="-41.0451" x2="-317.242" y2="498.508" gradientUnits="userSpaceOnUse">
<stop stop-color="white"/>
<stop offset="1" stop-color="white" stop-opacity="0"/>
</linearGradient>
<linearGradient id="paint11_linear_94_129" x1="-332.407" y1="-43.7493" x2="-306.939" y2="490.11" gradientUnits="userSpaceOnUse">
<stop stop-color="white"/>
<stop offset="1" stop-color="white" stop-opacity="0"/>
</linearGradient>
<linearGradient id="paint12_linear_94_129" x1="-321.831" y1="-46.4547" x2="-296.634" y2="481.712" gradientUnits="userSpaceOnUse">
<stop stop-color="white"/>
<stop offset="1" stop-color="white" stop-opacity="0"/>
</linearGradient>
<linearGradient id="paint13_linear_94_129" x1="-311.255" y1="-49.1627" x2="-286.33" y2="473.311" gradientUnits="userSpaceOnUse">
<stop stop-color="white"/>
<stop offset="1" stop-color="white" stop-opacity="0"/>
</linearGradient>
<linearGradient id="paint14_linear_94_129" x1="-300.669" y1="-51.8681" x2="-276.015" y2="464.912" gradientUnits="userSpaceOnUse">
<stop stop-color="white"/>
<stop offset="1" stop-color="white" stop-opacity="0"/>
</linearGradient>
<linearGradient id="paint15_linear_94_129" x1="-290.093" y1="-54.573" x2="-265.711" y2="456.514" gradientUnits="userSpaceOnUse">
<stop stop-color="white"/>
<stop offset="1" stop-color="white" stop-opacity="0"/>
</linearGradient>
<linearGradient id="paint16_linear_94_129" x1="-279.518" y1="-57.281" x2="-255.407" y2="448.113" gradientUnits="userSpaceOnUse">
<stop stop-color="white"/>
<stop offset="1" stop-color="white" stop-opacity="0"/>
</linearGradient>
<linearGradient id="paint17_linear_94_129" x1="-268.942" y1="-59.9859" x2="-245.103" y2="439.715" gradientUnits="userSpaceOnUse">
<stop stop-color="white"/>
<stop offset="1" stop-color="white" stop-opacity="0"/>
</linearGradient>
<linearGradient id="paint18_linear_94_129" x1="-258.367" y1="-62.6907" x2="-234.8" y2="431.317" gradientUnits="userSpaceOnUse">
<stop stop-color="white"/>
<stop offset="1" stop-color="white" stop-opacity="0"/>
</linearGradient>
<linearGradient id="paint19_linear_94_129" x1="-247.78" y1="-65.3993" x2="-224.484" y2="422.915" gradientUnits="userSpaceOnUse">
<stop stop-color="white"/>
<stop offset="1" stop-color="white" stop-opacity="0"/>
</linearGradient>
<linearGradient id="paint20_linear_94_129" x1="-237.205" y1="-68.104" x2="-214.181" y2="414.517" gradientUnits="userSpaceOnUse">
<stop stop-color="white"/>
<stop offset="1" stop-color="white" stop-opacity="0"/>
</linearGradient>
<linearGradient id="paint21_linear_94_129" x1="-235.328" y1="-70.3973" x2="-212.575" y2="406.531" gradientUnits="userSpaceOnUse">
<stop stop-color="white"/>
<stop offset="1" stop-color="white" stop-opacity="0"/>
</linearGradient>
<linearGradient id="paint22_linear_94_129" x1="-237.362" y1="-72.5005" x2="-214.845" y2="399.505" gradientUnits="userSpaceOnUse">
<stop stop-color="white"/>
<stop offset="1" stop-color="white" stop-opacity="0"/>
</linearGradient>
<linearGradient id="paint23_linear_94_129" x1="-239.968" y1="-74.5799" x2="-217.578" y2="394.761" gradientUnits="userSpaceOnUse">
<stop stop-color="white"/>
<stop offset="1" stop-color="white" stop-opacity="0"/>
</linearGradient>
<linearGradient id="paint24_linear_94_129" x1="-242.993" y1="-76.6323" x2="-220.682" y2="391.032" gradientUnits="userSpaceOnUse">
<stop stop-color="white"/>
<stop offset="1" stop-color="white" stop-opacity="0"/>
</linearGradient>
<linearGradient id="paint25_linear_94_129" x1="-246.361" y1="-78.6754" x2="-224.092" y2="388.122" gradientUnits="userSpaceOnUse">
<stop stop-color="white"/>
<stop offset="1" stop-color="white" stop-opacity="0"/>
</linearGradient>
<linearGradient id="paint26_linear_94_129" x1="-249.991" y1="-80.7059" x2="-227.731" y2="385.898" gradientUnits="userSpaceOnUse">
<stop stop-color="white"/>
<stop offset="1" stop-color="white" stop-opacity="0"/>
</linearGradient>
<linearGradient id="paint27_linear_94_129" x1="-253.836" y1="-82.7194" x2="-231.558" y2="384.256" gradientUnits="userSpaceOnUse">
<stop stop-color="white"/>
<stop offset="1" stop-color="white" stop-opacity="0"/>
</linearGradient>
<linearGradient id="paint28_linear_94_129" x1="-257.853" y1="-84.7313" x2="-235.534" y2="383.095" gradientUnits="userSpaceOnUse">
<stop stop-color="white"/>
<stop offset="1" stop-color="white" stop-opacity="0"/>
</linearGradient>
<linearGradient id="paint29_linear_94_129" x1="-262.002" y1="-86.737" x2="-239.624" y2="382.349" gradientUnits="userSpaceOnUse">
<stop stop-color="white"/>
<stop offset="1" stop-color="white" stop-opacity="0"/>
</linearGradient>
<linearGradient id="paint30_linear_94_129" x1="-266.286" y1="-88.7296" x2="-243.831" y2="381.966" gradientUnits="userSpaceOnUse">
<stop stop-color="white"/>
<stop offset="1" stop-color="white" stop-opacity="0"/>
</linearGradient>
<linearGradient id="paint31_linear_94_129" x1="-270.672" y1="-90.724" x2="-248.125" y2="381.886" gradientUnits="userSpaceOnUse">
<stop stop-color="white"/>
<stop offset="1" stop-color="white" stop-opacity="0"/>
</linearGradient>
<linearGradient id="paint32_linear_94_129" x1="-275.145" y1="-92.7144" x2="-252.495" y2="382.074" gradientUnits="userSpaceOnUse">
<stop stop-color="white"/>
<stop offset="1" stop-color="white" stop-opacity="0"/>
</linearGradient>
<linearGradient id="paint33_linear_94_129" x1="-279.695" y1="-94.6974" x2="-256.93" y2="382.5" gradientUnits="userSpaceOnUse">
<stop stop-color="white"/>
<stop offset="1" stop-color="white" stop-opacity="0"/>
</linearGradient>
<linearGradient id="paint34_linear_94_129" x1="-284.3" y1="-96.678" x2="-261.288" y2="385.689" gradientUnits="userSpaceOnUse">
<stop stop-color="white"/>
<stop offset="1" stop-color="white" stop-opacity="0"/>
</linearGradient>
<linearGradient id="paint35_linear_94_129" x1="-288.974" y1="-98.6587" x2="-265.521" y2="392.935" gradientUnits="userSpaceOnUse">
<stop stop-color="white"/>
<stop offset="1" stop-color="white" stop-opacity="0"/>
</linearGradient>
<linearGradient id="paint36_linear_94_129" x1="-293.698" y1="-100.634" x2="-269.802" y2="400.257" gradientUnits="userSpaceOnUse">
<stop stop-color="white"/>
<stop offset="1" stop-color="white" stop-opacity="0"/>
</linearGradient>
<linearGradient id="paint37_linear_94_129" x1="-298.468" y1="-102.606" x2="-274.126" y2="407.651" gradientUnits="userSpaceOnUse">
<stop stop-color="white"/>
<stop offset="1" stop-color="white" stop-opacity="0"/>
</linearGradient>
<linearGradient id="paint38_linear_94_129" x1="-303.278" y1="-104.581" x2="-278.485" y2="415.113" gradientUnits="userSpaceOnUse">
<stop stop-color="white"/>
<stop offset="1" stop-color="white" stop-opacity="0"/>
</linearGradient>
<linearGradient id="paint39_linear_94_129" x1="-308.112" y1="-106.55" x2="-282.854" y2="422.911" gradientUnits="userSpaceOnUse">
<stop stop-color="white"/>
<stop offset="1" stop-color="white" stop-opacity="0"/>
</linearGradient>
<linearGradient id="paint40_linear_94_129" x1="-312.989" y1="-108.518" x2="-287.227" y2="431.509" gradientUnits="userSpaceOnUse">
<stop stop-color="white"/>
<stop offset="1" stop-color="white" stop-opacity="0"/>
</linearGradient>
<linearGradient id="paint41_linear_94_129" x1="-317.896" y1="-110.487" x2="-291.628" y2="440.118" gradientUnits="userSpaceOnUse">
<stop stop-color="white"/>
<stop offset="1" stop-color="white" stop-opacity="0"/>
</linearGradient>
</defs>
</svg>
