<svg width="240" height="94" viewBox="0 0 240 94" fill="none" xmlns="http://www.w3.org/2000/svg">
<path d="M488.956 282.745C488.386 280.012 449.064 116.717 427.872 111.902C406.681 107.088 390.56 123.207 368.56 123.476C346.56 123.746 330.33 124.46 297.171 103.734C279.188 92.4928 282.569 81.3761 271.46 76.16C260.351 70.9438 227.147 72.7248 187.571 63.7328C147.994 54.7408 67.5622 13.7218 65.9834 -13.1169" stroke="url(#paint0_linear_10_198)" stroke-opacity="0.3"/>
<path d="M517.64 179.887C516.298 178.058 414.475 206.636 387.031 200.4C359.588 194.165 343.292 202.044 316.021 198.932C288.75 195.821 268.752 193.854 222.754 175.679C197.808 165.822 199.434 159.233 184.423 154.247C169.413 149.26 142.922 158.818 114.958 156.334C97.784 154.809 90.0856 150.312 67.9205 145.647C45.7555 140.982 291.507 12.4564 258.377 0.14591" stroke="url(#paint1_linear_10_198)" stroke-opacity="0.3"/>
<path d="M489.656 280.235C489.345 278.858 477.131 239.06 464.217 198.16C451.303 157.259 436.146 116.449 425.144 114.024C403.804 109.251 387.589 124.929 365.003 124.749C342.931 124.772 327.137 125.308 294.421 104.965C276.511 93.8766 279.163 83.2642 267.642 78.1146C256.386 72.9885 223.804 74.6164 184.652 65.73C145.5 56.8435 73.0241 13.6902 70.6757 -12.7942" stroke="url(#paint2_linear_10_198)" stroke-opacity="0.3"/>
<path d="M490.355 277.727C490.018 276.338 475.564 238.25 462.287 198.216C449.01 158.182 433.824 118.589 422.415 116.147C400.927 111.416 384.617 126.652 361.447 126.022C339.303 125.798 323.944 126.156 291.671 106.197C273.833 95.2616 275.756 85.1533 263.825 80.0705C252.42 75.0343 220.461 76.5092 181.733 67.7282C143.006 58.9472 78.4856 13.6597 75.3677 -12.4703" stroke="url(#paint3_linear_10_198)" stroke-opacity="0.3"/>
<path d="M491.056 275.218C490.694 273.818 474 237.439 460.36 198.272C446.719 159.104 431.505 120.729 419.689 118.27C398.053 113.58 381.649 128.375 357.893 127.295C335.677 126.824 320.754 127.004 288.923 107.429C271.157 96.6458 272.352 87.0419 260.01 82.0256C248.457 77.0795 217.12 78.4013 178.817 69.7258C140.515 61.0504 83.9499 13.6285 80.0624 -12.1471" stroke="url(#paint4_linear_10_198)" stroke-opacity="0.3"/>
<path d="M491.755 272.71C491.367 271.298 472.433 236.629 458.429 198.328C444.425 160.027 429.183 122.869 416.961 120.393C395.176 115.744 378.677 130.099 354.336 128.569C332.048 127.851 317.56 127.852 286.172 108.661C268.479 98.0307 268.945 88.931 256.192 83.9814C244.491 79.1253 213.776 80.2939 175.898 71.724C138.02 63.1541 89.4112 13.5979 84.7542 -11.8234" stroke="url(#paint5_linear_10_198)" stroke-opacity="0.3"/>
<path d="M492.454 270.201C492.04 268.778 470.866 235.818 456.499 198.384C442.132 160.95 426.861 125.009 414.232 122.516C392.299 117.909 375.706 131.822 350.779 129.842C328.419 128.877 314.367 128.701 283.422 109.894C265.801 99.4156 265.539 90.8201 252.374 85.9371C240.526 81.1711 210.433 82.1866 172.979 73.7222C135.526 65.2578 94.8727 13.5674 89.4462 -11.4996" stroke="url(#paint6_linear_10_198)" stroke-opacity="0.3"/>
<path d="M493.154 267.692C492.714 266.257 469.299 235.007 454.569 198.439C439.839 161.872 424.54 127.148 411.504 124.638C389.423 120.072 372.734 133.544 347.222 131.115C324.791 129.903 311.174 129.548 280.672 111.125C263.124 100.799 262.133 92.7081 248.557 87.8918C236.56 83.2158 207.089 84.0781 170.061 75.7193C133.032 67.3605 100.335 13.5357 94.1385 -11.1769" stroke="url(#paint7_linear_10_198)" stroke-opacity="0.3"/>
<path d="M493.853 265.183C493.387 263.738 467.732 234.196 452.639 198.496C437.545 162.795 422.218 129.288 408.775 126.761C386.546 122.236 369.763 135.268 343.666 132.388C321.162 130.929 307.981 130.397 277.921 112.357C260.446 102.184 258.726 94.5972 244.739 89.8476C232.595 85.2615 203.746 85.9708 167.142 77.7175C130.538 69.4642 105.796 13.5051 98.8305 -10.8531" stroke="url(#paint8_linear_10_198)" stroke-opacity="0.3"/>
<path d="M494.554 262.675C494.063 261.218 466.168 233.387 450.711 198.553C435.254 163.718 419.898 131.429 406.049 128.884C383.671 124.402 366.794 136.992 340.111 133.662C317.536 131.956 304.79 131.245 275.173 113.59C257.77 103.57 255.322 96.4868 240.924 91.8038C228.632 87.3079 200.405 87.864 164.225 79.7162C128.046 71.5684 111.26 13.4751 103.525 -10.5288" stroke="url(#paint9_linear_10_198)" stroke-opacity="0.3"/>
<path d="M495.253 260.166C494.736 258.698 464.601 232.575 448.781 198.608C432.961 164.64 417.577 133.568 403.32 131.006C380.794 126.565 363.823 138.714 336.555 134.935C313.908 132.982 301.598 132.093 272.423 114.821C255.092 104.953 251.915 98.3748 237.107 93.7585C224.666 89.3525 197.061 89.7556 161.307 81.7133C125.552 73.6711 116.722 13.4434 108.217 -10.2062" stroke="url(#paint10_linear_10_198)" stroke-opacity="0.3"/>
<path d="M495.952 257.657C495.409 256.178 463.034 231.765 446.851 198.664C430.668 165.563 415.255 135.708 400.592 133.129C377.917 128.73 360.851 140.437 332.998 136.209C310.279 134.008 298.404 132.941 269.672 116.054C252.414 106.338 248.509 100.264 233.289 95.7144C220.701 91.3985 193.718 91.6484 158.388 83.7117C123.058 75.775 122.183 13.413 112.909 -9.8822" stroke="url(#paint11_linear_10_198)" stroke-opacity="0.3"/>
<path d="M496.651 255.149C496.083 253.658 461.467 230.955 444.921 198.72C428.374 166.486 412.933 137.848 397.863 135.252C375.041 130.894 357.88 142.161 329.441 137.482C306.65 135.035 295.211 133.79 266.922 117.286C249.736 107.723 245.102 102.153 229.471 97.67C216.735 93.4441 190.374 93.5409 155.469 85.7097C120.564 77.8785 127.645 13.3823 117.601 -9.55861" stroke="url(#paint12_linear_10_198)" stroke-opacity="0.3"/>
<path d="M497.351 252.639C496.756 251.137 459.9 230.143 442.991 198.776C426.081 167.408 410.611 139.987 395.135 137.374C372.164 133.057 354.908 143.883 325.884 138.754C303.022 136.06 292.018 134.637 264.171 118.517C247.058 109.107 241.696 104.041 225.654 99.6247C212.77 95.4888 187.031 95.4325 152.551 87.7069C118.07 79.9812 133.107 13.3507 122.293 -9.23587" stroke="url(#paint13_linear_10_198)" stroke-opacity="0.3"/>
<path d="M498.052 250.131C497.432 248.618 458.336 229.333 441.063 198.832C423.79 168.331 408.292 142.128 392.409 139.497C369.289 135.222 351.939 145.607 322.33 140.028C299.396 137.087 288.828 135.486 261.423 119.75C244.383 110.492 238.292 105.931 221.838 101.581C208.806 97.5351 183.69 97.3256 149.634 89.7055C115.578 82.0854 138.57 13.3206 126.988 -8.91163" stroke="url(#paint14_linear_10_198)" stroke-opacity="0.3"/>
<path d="M498.751 247.623C498.105 246.099 456.769 228.523 439.133 198.889C421.496 169.254 405.97 144.268 389.68 141.62C366.412 137.387 348.968 147.33 318.773 141.302C295.767 138.114 285.634 136.334 258.673 120.982C241.705 111.877 234.885 107.82 218.021 103.537C204.841 99.5808 180.346 99.2183 146.715 91.7037C113.084 84.1891 144.032 13.2899 131.679 -8.58789" stroke="url(#paint15_linear_10_198)" stroke-opacity="0.3"/>
<path d="M499.451 245.113C498.779 243.578 455.202 227.712 437.203 198.944C419.203 170.176 403.648 146.407 386.952 143.742C363.536 139.55 345.997 149.053 315.217 142.574C292.139 139.139 282.442 137.182 255.923 122.214C239.027 113.261 231.479 109.708 214.203 105.491C200.875 101.626 177.003 101.11 143.797 93.7009C110.59 86.2918 149.494 13.2584 136.372 -8.2651" stroke="url(#paint16_linear_10_198)" stroke-opacity="0.3"/>
<path d="M500.15 242.605C499.452 241.058 453.635 226.901 435.272 199C416.91 171.099 401.326 148.547 384.223 145.865C360.659 141.715 343.025 150.776 311.66 143.848C288.51 140.166 279.248 138.03 253.172 123.446C236.349 114.646 228.072 111.597 210.386 107.447C196.91 103.671 173.66 103.003 140.878 95.699C108.096 88.3955 154.955 13.2278 141.064 -7.94137" stroke="url(#paint17_linear_10_198)" stroke-opacity="0.3"/>
<path d="M500.849 240.097C500.125 238.538 452.068 226.091 433.342 199.056C414.616 172.022 399.004 150.687 381.494 147.988C357.782 143.879 340.053 152.499 308.103 145.121C284.881 141.192 276.055 138.878 250.421 124.678C233.671 116.031 224.666 113.486 206.568 109.403C192.944 105.717 170.316 104.895 137.959 97.6972C105.602 90.4992 160.417 13.1972 145.756 -7.61762" stroke="url(#paint18_linear_10_198)" stroke-opacity="0.3"/>
<path d="M501.55 237.588C500.801 236.018 450.504 225.28 431.415 199.112C412.326 172.944 396.685 152.827 378.768 150.11C354.908 146.043 337.085 154.222 304.549 146.394C281.256 142.218 272.865 139.726 247.674 125.91C230.996 117.415 221.262 115.375 202.753 111.358C188.981 107.762 166.975 106.787 135.043 99.6949C103.11 92.6025 165.881 13.1661 150.45 -7.29433" stroke="url(#paint19_linear_10_198)" stroke-opacity="0.3"/>
<path d="M502.249 235.079C501.474 233.498 448.937 224.47 429.484 199.168C410.032 173.867 394.363 154.967 376.04 152.233C352.031 148.208 334.113 155.946 300.992 147.668C277.627 143.245 269.672 140.575 244.923 127.142C228.318 118.8 217.855 117.264 198.935 113.314C185.016 109.808 163.632 108.68 132.124 101.693C100.616 94.7062 171.342 13.1355 155.142 -6.97057" stroke="url(#paint20_linear_10_198)" stroke-opacity="0.3"/>
<path d="M502.949 232.57C502.148 230.978 447.37 223.658 427.555 199.224C407.739 174.789 392.041 157.106 373.311 154.355C349.154 150.371 331.142 157.668 297.436 148.94C273.999 144.27 266.479 141.422 242.173 128.374C225.64 120.184 214.449 119.152 195.118 115.269C181.05 111.853 160.288 110.572 129.205 103.69C98.1222 96.8088 176.804 13.1039 159.835 -6.64788" stroke="url(#paint21_linear_10_198)" stroke-opacity="0.3"/>
<path d="M503.648 230.061C502.821 228.458 445.803 222.848 425.624 199.28C405.445 175.712 389.719 159.246 370.583 156.478C346.277 152.536 328.17 159.391 293.879 150.214C270.37 145.297 263.285 142.271 239.422 129.606C222.962 121.568 211.042 121.041 191.3 117.224C177.085 113.899 156.945 112.464 126.286 105.688C95.6279 98.9125 182.266 13.0733 164.526 -6.32412" stroke="url(#paint22_linear_10_198)" stroke-opacity="0.3"/>
<path d="M504.347 227.552C503.495 225.937 444.237 222.037 423.694 199.335C403.152 176.634 387.398 161.386 367.854 158.6C343.401 154.699 325.199 161.114 290.322 151.486C266.742 146.322 260.093 143.118 236.672 130.837C220.284 122.952 207.636 122.929 187.483 119.179C173.12 115.943 153.602 114.356 123.368 107.686C93.1341 101.015 187.728 13.0416 169.219 -6.00142" stroke="url(#paint23_linear_10_198)" stroke-opacity="0.3"/>
<path d="M505.048 225.045C504.17 223.419 442.672 221.228 421.766 199.393C400.861 177.558 385.078 163.527 365.128 160.725C340.526 156.865 322.23 162.839 286.768 152.762C263.115 147.351 256.902 143.968 233.924 132.071C217.608 124.339 204.231 124.82 183.667 121.136C169.156 117.991 150.26 116.25 120.451 109.685C90.6419 103.121 193.191 13.0127 173.913 -5.67601" stroke="url(#paint24_linear_10_198)" stroke-opacity="0.3"/>
<path d="M505.747 222.535C504.844 220.898 441.105 220.416 419.836 199.448C398.568 178.48 382.756 165.666 362.399 162.847C337.649 159.029 319.259 164.561 283.211 154.034C259.487 148.376 253.709 144.815 231.173 133.302C214.931 125.723 200.825 126.708 179.85 123.091C165.191 120.035 146.917 118.142 117.532 111.682C88.148 105.223 198.653 12.981 178.605 -5.35333" stroke="url(#paint25_linear_10_198)" stroke-opacity="0.3"/>
<path d="M506.447 220.026C505.517 218.377 439.538 219.605 417.906 199.503C396.275 179.402 380.435 167.805 359.671 164.969C334.773 161.192 316.288 166.283 279.655 155.306C255.858 149.401 250.516 145.663 228.423 134.534C212.253 127.106 197.419 128.596 176.032 125.046C161.225 122.08 143.574 120.033 114.614 113.68C85.6542 107.326 204.115 12.9494 183.297 -5.03064" stroke="url(#paint26_linear_10_198)" stroke-opacity="0.3"/>
<path d="M507.145 217.518C506.19 215.859 437.971 218.796 415.976 199.561C393.981 180.326 378.112 169.947 356.942 167.093C331.895 163.358 313.316 168.008 276.098 156.581C252.229 150.429 247.322 146.512 225.672 135.767C209.575 128.492 194.012 130.486 172.214 127.003C157.259 124.127 140.23 121.927 111.695 115.679C83.1596 109.431 209.576 12.9199 187.989 -4.7058" stroke="url(#paint27_linear_10_198)" stroke-opacity="0.3"/>
<path d="M507.845 215.009C506.864 213.338 436.404 217.984 414.046 199.616C391.688 181.248 375.791 172.086 354.214 169.215C329.019 165.521 310.344 169.73 272.541 157.853C248.601 151.455 244.129 147.359 222.922 136.998C206.897 129.876 190.606 132.374 168.397 128.957C153.294 126.172 136.887 123.819 108.776 117.676C80.6657 111.533 215.038 12.8882 192.681 -4.38309" stroke="url(#paint28_linear_10_198)" stroke-opacity="0.3"/>
<path d="M508.546 212.5C507.54 210.818 434.84 217.173 412.118 199.672C389.397 182.17 373.472 174.225 351.488 171.337C326.144 167.685 307.376 171.453 268.987 159.127C244.975 152.481 240.939 148.207 220.174 138.23C204.222 131.26 187.202 134.262 164.582 130.912C149.331 128.217 133.546 125.711 105.86 119.674C78.1743 113.637 220.502 12.8572 197.376 -4.05982" stroke="url(#paint29_linear_10_198)" stroke-opacity="0.3"/>
<path d="M509.245 209.993C508.212 208.299 433.273 216.364 410.188 199.729C387.103 183.094 371.149 176.367 348.759 173.461C323.267 169.851 304.404 173.177 265.43 160.401C241.346 153.508 237.745 149.057 217.423 139.463C201.543 132.646 183.795 136.153 160.764 132.869C145.365 130.264 130.202 127.604 102.941 121.673C75.6797 115.741 225.963 12.8276 202.067 -3.73502" stroke="url(#paint30_linear_10_198)" stroke-opacity="0.3"/>
<path d="M509.944 207.483C508.886 205.778 431.706 215.553 408.258 199.784C384.81 184.016 368.828 178.506 346.03 175.583C320.39 172.014 301.433 174.9 261.873 161.673C237.718 154.534 234.553 149.904 214.673 140.695C198.865 134.03 180.389 138.041 156.946 134.824C141.4 132.308 126.859 129.496 100.022 123.67C73.1858 117.844 231.425 12.7959 206.76 -3.41234" stroke="url(#paint31_linear_10_198)" stroke-opacity="0.3"/>
<path d="M510.644 204.974C509.56 203.257 430.139 214.741 406.328 199.84C382.517 184.938 366.506 180.645 343.302 177.705C317.514 174.178 298.461 176.622 258.317 162.946C234.089 155.559 231.36 150.751 211.923 141.926C196.188 135.414 176.982 139.929 153.129 136.779C137.435 134.353 123.516 131.388 97.1038 125.667C70.692 119.947 236.887 12.7643 211.452 -3.08965" stroke="url(#paint32_linear_10_198)" stroke-opacity="0.3"/>
<path d="M511.343 202.465C510.233 200.738 428.572 213.931 404.398 199.896C380.223 185.861 364.184 182.785 340.573 179.828C314.637 176.342 295.49 178.345 254.76 164.219C230.461 156.586 228.167 151.6 209.173 143.158C193.51 136.799 173.576 141.818 149.311 138.734C133.469 136.399 120.172 133.28 94.1848 127.665C68.1977 122.05 242.348 12.7337 216.144 -2.76587" stroke="url(#paint33_linear_10_198)" stroke-opacity="0.3"/>
<path d="M512.044 199.957C510.909 198.218 427.008 213.121 402.47 199.953C377.932 186.784 361.864 184.926 337.847 181.951C311.762 178.507 292.521 180.069 251.206 165.493C226.834 157.613 224.976 152.449 206.424 144.391C190.834 138.184 170.171 143.707 145.496 140.691C129.506 138.445 116.831 135.173 91.2682 129.664C65.7058 124.154 247.812 12.7037 220.838 -2.44158" stroke="url(#paint34_linear_10_198)" stroke-opacity="0.3"/>
<path d="M512.744 197.448C511.582 195.698 425.441 212.31 400.54 200.008C375.639 187.706 359.543 187.065 335.119 184.073C308.886 180.671 289.55 181.792 247.649 166.766C223.206 158.638 221.783 153.296 203.674 145.622C188.156 139.568 166.765 145.595 141.679 142.645C125.54 140.49 113.488 137.065 88.3498 131.661C63.212 126.257 253.274 12.6721 225.531 -2.11882" stroke="url(#paint35_linear_10_198)" stroke-opacity="0.3"/>
<path d="M513.442 194.939C512.255 193.178 423.874 211.499 398.61 200.064C373.345 188.629 357.221 189.205 332.39 186.196C306.009 182.835 286.578 183.515 244.092 168.039C219.577 159.665 218.59 154.145 200.924 146.855C185.478 140.953 163.359 147.485 137.861 144.601C121.575 142.536 110.144 138.958 85.4308 133.659C60.7178 128.361 258.735 12.6414 230.223 -1.7951" stroke="url(#paint36_linear_10_198)" stroke-opacity="0.3"/>
<path d="M514.141 192.431C512.929 190.658 422.307 210.689 396.68 200.121C371.052 189.552 354.899 191.345 329.662 188.319C303.132 185 283.606 185.239 240.535 169.313C215.949 160.691 215.397 154.993 198.173 148.087C182.8 142.338 159.952 149.374 134.043 146.557C117.609 144.581 106.8 140.85 82.5119 135.658C58.2235 130.465 264.197 12.6109 234.914 -1.47126" stroke="url(#paint37_linear_10_198)" stroke-opacity="0.3"/>
<path d="M514.841 189.921C513.602 188.137 420.74 209.878 394.75 200.176C368.759 190.474 352.577 193.484 326.933 190.441C300.255 187.163 280.635 186.961 236.979 170.585C212.32 161.717 212.204 155.84 195.423 149.318C180.123 143.721 156.546 151.262 130.226 148.511C113.644 146.626 103.457 142.742 79.5934 137.655C55.7297 132.567 269.659 12.5792 239.607 -1.14866" stroke="url(#paint38_linear_10_198)" stroke-opacity="0.3"/>
<path d="M515.542 187.413C514.278 185.618 419.176 209.068 392.822 200.233C366.468 191.397 350.258 195.625 324.207 192.564C297.381 189.328 277.666 188.685 233.425 171.86C208.694 162.744 209.013 156.689 192.675 150.551C177.447 145.107 153.141 153.151 126.411 150.468C109.681 148.672 100.116 144.635 76.6769 139.653C53.2379 134.671 275.123 12.5492 244.301 -0.824329" stroke="url(#paint39_linear_10_198)" stroke-opacity="0.3"/>
<path d="M516.241 184.905C514.951 183.099 417.609 208.258 390.891 200.289C364.174 192.32 347.936 197.765 321.478 194.687C294.504 191.493 274.695 190.408 229.868 173.133C205.065 163.77 205.82 157.538 189.924 151.783C174.769 146.492 149.735 155.04 122.593 152.424C105.715 150.718 96.7723 146.528 73.7579 141.652C50.7435 136.775 280.584 12.5186 248.993 -0.500523" stroke="url(#paint40_linear_10_198)" stroke-opacity="0.3"/>
<path d="M516.941 182.395C515.625 180.578 416.042 207.446 388.962 200.344C361.881 193.242 345.614 199.904 318.75 196.809C291.627 193.656 271.723 192.13 226.311 174.405C201.437 164.796 202.627 158.385 187.174 153.015C172.091 147.875 146.329 156.928 118.775 154.378C101.75 152.763 93.4292 148.419 70.8395 143.649C48.2498 138.878 286.046 12.4869 253.685 -0.177865" stroke="url(#paint41_linear_10_198)" stroke-opacity="0.3"/>
<defs>
<linearGradient id="paint0_linear_10_198" x1="310.071" y1="42.3413" x2="266.913" y2="232.295" gradientUnits="userSpaceOnUse">
<stop stop-color="white"/>
<stop offset="1" stop-color="white" stop-opacity="0"/>
</linearGradient>
<linearGradient id="paint1_linear_10_198" x1="342.397" y1="19.2356" x2="301.4" y2="199.673" gradientUnits="userSpaceOnUse">
<stop stop-color="white"/>
<stop offset="1" stop-color="white" stop-opacity="0"/>
</linearGradient>
<linearGradient id="paint2_linear_10_198" x1="312.453" y1="42.1391" x2="269.71" y2="230.262" gradientUnits="userSpaceOnUse">
<stop stop-color="white"/>
<stop offset="1" stop-color="white" stop-opacity="0"/>
</linearGradient>
<linearGradient id="paint3_linear_10_198" x1="314.834" y1="41.9379" x2="272.508" y2="228.231" gradientUnits="userSpaceOnUse">
<stop stop-color="white"/>
<stop offset="1" stop-color="white" stop-opacity="0"/>
</linearGradient>
<linearGradient id="paint4_linear_10_198" x1="317.218" y1="41.7361" x2="275.308" y2="226.199" gradientUnits="userSpaceOnUse">
<stop stop-color="white"/>
<stop offset="1" stop-color="white" stop-opacity="0"/>
</linearGradient>
<linearGradient id="paint5_linear_10_198" x1="319.6" y1="41.5349" x2="278.105" y2="224.167" gradientUnits="userSpaceOnUse">
<stop stop-color="white"/>
<stop offset="1" stop-color="white" stop-opacity="0"/>
</linearGradient>
<linearGradient id="paint6_linear_10_198" x1="321.981" y1="41.3337" x2="280.902" y2="222.135" gradientUnits="userSpaceOnUse">
<stop stop-color="white"/>
<stop offset="1" stop-color="white" stop-opacity="0"/>
</linearGradient>
<linearGradient id="paint7_linear_10_198" x1="324.363" y1="41.1314" x2="283.699" y2="220.102" gradientUnits="userSpaceOnUse">
<stop stop-color="white"/>
<stop offset="1" stop-color="white" stop-opacity="0"/>
</linearGradient>
<linearGradient id="paint8_linear_10_198" x1="326.744" y1="40.9302" x2="286.497" y2="218.071" gradientUnits="userSpaceOnUse">
<stop stop-color="white"/>
<stop offset="1" stop-color="white" stop-opacity="0"/>
</linearGradient>
<linearGradient id="paint9_linear_10_198" x1="329.128" y1="40.7295" x2="289.296" y2="216.039" gradientUnits="userSpaceOnUse">
<stop stop-color="white"/>
<stop offset="1" stop-color="white" stop-opacity="0"/>
</linearGradient>
<linearGradient id="paint10_linear_10_198" x1="331.509" y1="40.5272" x2="292.094" y2="214.007" gradientUnits="userSpaceOnUse">
<stop stop-color="white"/>
<stop offset="1" stop-color="white" stop-opacity="0"/>
</linearGradient>
<linearGradient id="paint11_linear_10_198" x1="333.891" y1="40.3261" x2="294.891" y2="211.975" gradientUnits="userSpaceOnUse">
<stop stop-color="white"/>
<stop offset="1" stop-color="white" stop-opacity="0"/>
</linearGradient>
<linearGradient id="paint12_linear_10_198" x1="336.272" y1="40.1247" x2="297.688" y2="209.943" gradientUnits="userSpaceOnUse">
<stop stop-color="white"/>
<stop offset="1" stop-color="white" stop-opacity="0"/>
</linearGradient>
<linearGradient id="paint13_linear_10_198" x1="338.654" y1="39.9225" x2="300.486" y2="207.91" gradientUnits="userSpaceOnUse">
<stop stop-color="white"/>
<stop offset="1" stop-color="white" stop-opacity="0"/>
</linearGradient>
<linearGradient id="paint14_linear_10_198" x1="341.037" y1="39.7217" x2="303.285" y2="205.879" gradientUnits="userSpaceOnUse">
<stop stop-color="white"/>
<stop offset="1" stop-color="white" stop-opacity="0"/>
</linearGradient>
<linearGradient id="paint15_linear_10_198" x1="343.419" y1="39.5205" x2="306.082" y2="203.847" gradientUnits="userSpaceOnUse">
<stop stop-color="white"/>
<stop offset="1" stop-color="white" stop-opacity="0"/>
</linearGradient>
<linearGradient id="paint16_linear_10_198" x1="345.8" y1="39.3183" x2="308.88" y2="201.815" gradientUnits="userSpaceOnUse">
<stop stop-color="white"/>
<stop offset="1" stop-color="white" stop-opacity="0"/>
</linearGradient>
<linearGradient id="paint17_linear_10_198" x1="348.182" y1="39.117" x2="311.677" y2="199.783" gradientUnits="userSpaceOnUse">
<stop stop-color="white"/>
<stop offset="1" stop-color="white" stop-opacity="0"/>
</linearGradient>
<linearGradient id="paint18_linear_10_198" x1="350.563" y1="38.9158" x2="314.475" y2="197.751" gradientUnits="userSpaceOnUse">
<stop stop-color="white"/>
<stop offset="1" stop-color="white" stop-opacity="0"/>
</linearGradient>
<linearGradient id="paint19_linear_10_198" x1="352.947" y1="38.7141" x2="317.274" y2="195.719" gradientUnits="userSpaceOnUse">
<stop stop-color="white"/>
<stop offset="1" stop-color="white" stop-opacity="0"/>
</linearGradient>
<linearGradient id="paint20_linear_10_198" x1="355.328" y1="38.5128" x2="320.072" y2="193.687" gradientUnits="userSpaceOnUse">
<stop stop-color="white"/>
<stop offset="1" stop-color="white" stop-opacity="0"/>
</linearGradient>
<linearGradient id="paint21_linear_10_198" x1="355.925" y1="37.9049" x2="321.084" y2="191.249" gradientUnits="userSpaceOnUse">
<stop stop-color="white"/>
<stop offset="1" stop-color="white" stop-opacity="0"/>
</linearGradient>
<linearGradient id="paint22_linear_10_198" x1="355.718" y1="37.1157" x2="321.237" y2="188.877" gradientUnits="userSpaceOnUse">
<stop stop-color="white"/>
<stop offset="1" stop-color="white" stop-opacity="0"/>
</linearGradient>
<linearGradient id="paint23_linear_10_198" x1="355.394" y1="36.2987" x2="321.108" y2="187.203" gradientUnits="userSpaceOnUse">
<stop stop-color="white"/>
<stop offset="1" stop-color="white" stop-opacity="0"/>
</linearGradient>
<linearGradient id="paint24_linear_10_198" x1="354.984" y1="35.4644" x2="320.82" y2="185.83" gradientUnits="userSpaceOnUse">
<stop stop-color="white"/>
<stop offset="1" stop-color="white" stop-opacity="0"/>
</linearGradient>
<linearGradient id="paint25_linear_10_198" x1="354.504" y1="34.6119" x2="320.403" y2="184.699" gradientUnits="userSpaceOnUse">
<stop stop-color="white"/>
<stop offset="1" stop-color="white" stop-opacity="0"/>
</linearGradient>
<linearGradient id="paint26_linear_10_198" x1="353.97" y1="33.7472" x2="319.883" y2="183.772" gradientUnits="userSpaceOnUse">
<stop stop-color="white"/>
<stop offset="1" stop-color="white" stop-opacity="0"/>
</linearGradient>
<linearGradient id="paint27_linear_10_198" x1="353.392" y1="32.8747" x2="319.278" y2="183.019" gradientUnits="userSpaceOnUse">
<stop stop-color="white"/>
<stop offset="1" stop-color="white" stop-opacity="0"/>
</linearGradient>
<linearGradient id="paint28_linear_10_198" x1="352.778" y1="31.9919" x2="318.603" y2="182.41" gradientUnits="userSpaceOnUse">
<stop stop-color="white"/>
<stop offset="1" stop-color="white" stop-opacity="0"/>
</linearGradient>
<linearGradient id="paint29_linear_10_198" x1="352.138" y1="31.103" x2="317.87" y2="181.926" gradientUnits="userSpaceOnUse">
<stop stop-color="white"/>
<stop offset="1" stop-color="white" stop-opacity="0"/>
</linearGradient>
<linearGradient id="paint30_linear_10_198" x1="351.469" y1="30.2099" x2="317.084" y2="181.55" gradientUnits="userSpaceOnUse">
<stop stop-color="white"/>
<stop offset="1" stop-color="white" stop-opacity="0"/>
</linearGradient>
<linearGradient id="paint31_linear_10_198" x1="350.78" y1="29.31" x2="316.255" y2="181.266" gradientUnits="userSpaceOnUse">
<stop stop-color="white"/>
<stop offset="1" stop-color="white" stop-opacity="0"/>
</linearGradient>
<linearGradient id="paint32_linear_10_198" x1="350.073" y1="28.4059" x2="315.389" y2="181.062" gradientUnits="userSpaceOnUse">
<stop stop-color="white"/>
<stop offset="1" stop-color="white" stop-opacity="0"/>
</linearGradient>
<linearGradient id="paint33_linear_10_198" x1="349.35" y1="27.4994" x2="314.49" y2="180.93" gradientUnits="userSpaceOnUse">
<stop stop-color="white"/>
<stop offset="1" stop-color="white" stop-opacity="0"/>
</linearGradient>
<linearGradient id="paint34_linear_10_198" x1="348.616" y1="26.5903" x2="313.378" y2="181.683" gradientUnits="userSpaceOnUse">
<stop stop-color="white"/>
<stop offset="1" stop-color="white" stop-opacity="0"/>
</linearGradient>
<linearGradient id="paint35_linear_10_198" x1="347.868" y1="25.677" x2="311.956" y2="183.737" gradientUnits="userSpaceOnUse">
<stop stop-color="white"/>
<stop offset="1" stop-color="white" stop-opacity="0"/>
</linearGradient>
<linearGradient id="paint36_linear_10_198" x1="347.109" y1="24.7623" x2="310.518" y2="185.811" gradientUnits="userSpaceOnUse">
<stop stop-color="white"/>
<stop offset="1" stop-color="white" stop-opacity="0"/>
</linearGradient>
<linearGradient id="paint37_linear_10_198" x1="346.341" y1="23.8456" x2="309.066" y2="187.906" gradientUnits="userSpaceOnUse">
<stop stop-color="white"/>
<stop offset="1" stop-color="white" stop-opacity="0"/>
</linearGradient>
<linearGradient id="paint38_linear_10_198" x1="345.565" y1="22.9258" x2="307.601" y2="190.02" gradientUnits="userSpaceOnUse">
<stop stop-color="white"/>
<stop offset="1" stop-color="white" stop-opacity="0"/>
</linearGradient>
<linearGradient id="paint39_linear_10_198" x1="344.784" y1="22.006" x2="306.106" y2="192.241" gradientUnits="userSpaceOnUse">
<stop stop-color="white"/>
<stop offset="1" stop-color="white" stop-opacity="0"/>
</linearGradient>
<linearGradient id="paint40_linear_10_198" x1="343.994" y1="21.0843" x2="304.544" y2="194.716" gradientUnits="userSpaceOnUse">
<stop stop-color="white"/>
<stop offset="1" stop-color="white" stop-opacity="0"/>
</linearGradient>
<linearGradient id="paint41_linear_10_198" x1="343.198" y1="20.16" x2="302.975" y2="197.193" gradientUnits="userSpaceOnUse">
<stop stop-color="white"/>
<stop offset="1" stop-color="white" stop-opacity="0"/>
</linearGradient>
</defs>
</svg>
