<svg width="18" height="13" viewBox="0 0 18 13" fill="none" xmlns="http://www.w3.org/2000/svg">
<path d="M9 0.395447C5.56091 0.395447 2.44216 2.45098 0.140841 5.78973C-0.0469469 6.06326 -0.0469469 6.44541 0.140841 6.71894C2.44216 10.0617 5.56091 12.1172 9 12.1172C12.4391 12.1172 15.5578 10.0617 17.8592 6.72296C18.0469 6.44943 18.0469 6.06728 17.8592 5.79375C15.5578 2.45098 12.4391 0.395447 9 0.395447ZM9.2467 10.3835C6.96379 10.5404 5.07855 8.48485 5.22215 5.98683C5.33998 3.92727 6.86806 2.2579 8.7533 2.12918C11.0362 1.9723 12.9214 4.02784 12.7778 6.52586C12.6563 8.5814 11.1283 10.2508 9.2467 10.3835ZM9.13256 8.47681C7.90273 8.56128 6.88647 7.45507 6.96747 6.11153C7.03007 5.0013 7.85486 4.10427 8.87113 4.03186C10.101 3.94738 11.1172 5.05359 11.0362 6.39714C10.9699 7.51139 10.1451 8.40843 9.13256 8.47681Z" fill="white"/>
</svg>
