<svg width="18" height="18" viewBox="0 0 18 18" fill="none" xmlns="http://www.w3.org/2000/svg">
<path d="M9 3.39545C5.56091 3.39545 2.44216 5.45098 0.140841 8.78973C-0.0469469 9.06326 -0.0469469 9.44541 0.140841 9.71894C2.44216 13.0617 5.56091 15.1172 9 15.1172C12.4391 15.1172 15.5578 13.0617 17.8592 9.72296C18.0469 9.44943 18.0469 9.06728 17.8592 8.79375C15.5578 5.45098 12.4391 3.39545 9 3.39545ZM9.2467 13.3835C6.96379 13.5404 5.07855 11.4849 5.22215 8.98683C5.33998 6.92727 6.86806 5.2579 8.7533 5.12918C11.0362 4.9723 12.9214 7.02784 12.7778 9.52586C12.6563 11.5814 11.1283 13.2508 9.2467 13.3835ZM9.13256 11.4768C7.90273 11.5613 6.88647 10.4551 6.96747 9.11153C7.03007 8.0013 7.85486 7.10427 8.87113 7.03186C10.101 6.94738 11.1172 8.05359 11.0362 9.39714C10.9699 10.5114 10.1451 11.4084 9.13256 11.4768Z" fill="white"/>
<path d="M1.57144 2L15.9037 16" stroke="white" stroke-width="1.5" stroke-linecap="square"/>
</svg>
